# xmcd CD database file
#
# Track frame offsets:
#	183
#	21050
#	36548
#	53468
#	70433
#	87190
#	107253
#	126783
#	138785
#	153923
#	177305
#	191890
#	207325
#	228075
#	254143
#	267815
#
# Disc length: 3747 seconds
#
# Revision: 2
# Processed by: cddbd v1.4PL0 Copyright (c) Steve Scherf et al.
# Submitted via: CDex 1.40Release
#
DISCID=da0ea110
DTITLE=Gladys Knight and the Pips - Greatest Hits
DYEAR=1900
DGENRE=
TTITLE0=Midnight Train To Georgia
TTITLE1=I´ve Got To Use My Imagination
TTITLE2=Storm Of Troubled Times
TTITLE3=Best Thing That Ever Happened To Me
TTITLE4=Once In A Lifetime Thing
TTITLE5=Where Peaceful Waters Flow
TTITLE6=I Can See Clearly Now
TTITLE7=Perfect Love
TTITLE8=Feel A Song In My Heart
TTITLE9=Home Is Where The Heart Is
TTITLE10=Baby Don´t Change Your Mind
TTITLE11=Come Back And Finish What You Started
TTITLE12=All The Time
TTITLE13=It´s Better Than Good Time
TTITLE14=The One and Only
TTITLE15=Saved By The Grace Your Love
EXTD=
EXTT0=
EXTT1=
EXTT2=
EXTT3=
EXTT4=
EXTT5=
EXTT6=
EXTT7=
EXTT8=
EXTT9=
EXTT10=
EXTT11=
EXTT12=
EXTT13=
EXTT14=
EXTT15=
PLAYORDER=
